<?xml version="1.0" encoding="UTF-8" standalone="no"?>
<svg
   xmlns:dc="http://purl.org/dc/elements/1.1/"
   xmlns:cc="http://creativecommons.org/ns#"
   xmlns:rdf="http://www.w3.org/1999/02/22-rdf-syntax-ns#"
   xmlns:svg="http://www.w3.org/2000/svg"
   xmlns="http://www.w3.org/2000/svg"
   xmlns:sodipodi="http://sodipodi.sourceforge.net/DTD/sodipodi-0.dtd"
   xmlns:inkscape="http://www.inkscape.org/namespaces/inkscape"
   viewBox="0 83 2711.3 1193.7"
   version="1.0"
   height="415"
   width="520"
   id="svg1926"
   sodipodi:version="0.32"
   inkscape:version="0.48.4 r9939"
   sodipodi:docname="arab_map.svg"
   inkscape:output_extension="org.inkscape.output.svg.inkscape">
  <sodipodi:namedview
     inkscape:window-height="744"
     inkscape:window-width="1366"
     inkscape:pageshadow="2"
     inkscape:pageopacity="0.0"
     guidetolerance="10.0"
     gridtolerance="10.0"
     objecttolerance="10.0"
     borderopacity="1.0"
     bordercolor="#666666"
     pagecolor="#ffffff"
     id="base"
     width="520px"
     height="415px"
     inkscape:zoom="1.2433735"
     inkscape:cx="132.12209"
     inkscape:cy="207.5"
     inkscape:window-x="0"
     inkscape:window-y="0"
     inkscape:current-layer="svg1926"
     showgrid="false"
     inkscape:window-maximized="1" />
  <metadata
     id="metadata24111">
    <rdf:RDF>
      <cc:Work
         rdf:about="">
        <dc:format>image/svg+xml</dc:format>
        <dc:type
           rdf:resource="http://purl.org/dc/dcmitype/StillImage" />
        <cc:license
           rdf:resource="http://web.resource.org/cc/PublicDomain" />
        <dc:title>Blank World Map</dc:title>
      </cc:Work>
      <cc:License
         rdf:about="http://web.resource.org/cc/PublicDomain">
        <cc:permits
           rdf:resource="http://web.resource.org/cc/Reproduction" />
        <cc:permits
           rdf:resource="http://web.resource.org/cc/Distribution" />
        <cc:permits
           rdf:resource="http://web.resource.org/cc/DerivativeWorks" />
      </cc:License>
    </rdf:RDF>
  </metadata>
  <defs
     id="defs1930">
    <marker
       inkscape:stockid="Arrow1Mend"
       orient="auto"
       refY="0.0"
       refX="0.0"
       id="Arrow1Mend"
       style="overflow:visible;">
      <path
         id="path8224"
         d="M 0.0,0.0 L 5.0,-5.0 L -12.5,0.0 L 5.0,5.0 L 0.0,0.0 z "
         style="fill-rule:evenodd;stroke:#000000;stroke-width:1.0pt;marker-start:none;"
         transform="scale(0.4) rotate(180) translate(10,0)" />
    </marker>
    <marker
       inkscape:stockid="Arrow1Lend"
       orient="auto"
       refY="0.0"
       refX="0.0"
       id="Arrow1Lend"
       style="overflow:visible;">
      <path
         id="path8218"
         d="M 0.0,0.0 L 5.0,-5.0 L -12.5,0.0 L 5.0,5.0 L 0.0,0.0 z "
         style="fill-rule:evenodd;stroke:#000000;stroke-width:1.0pt;marker-start:none;"
         transform="scale(0.8) rotate(180) translate(12.5,0)" />
    </marker>
    <marker
       inkscape:stockid="Arrow2Lend"
       orient="auto"
       refY="0.0"
       refX="0.0"
       id="Arrow2Lend"
       style="overflow:visible;">
      <path
         id="path8236"
         style="font-size:12.0;fill-rule:evenodd;stroke-width:0.62500000;stroke-linejoin:round;"
         d="M 8.7185878,4.0337352 L -2.2072895,0.016013256 L 8.7185884,-4.0017078 C 6.9730900,-1.6296469 6.9831476,1.6157441 8.7185878,4.0337352 z "
         transform="scale(1.1) rotate(180) translate(1,0)" />
    </marker>
  </defs>
  <style
     type="text/css"
     id="style_css_sheet">
/*
 * Below are Cascading Style Sheet (CSS) definitions in use in this file,
 * which allow easily changing how countries are displayed.
 *
 */

/*
 * Circles around small countries
 *
 * Change opacity to 1 to display all circles.
 *
 */
.circle
{
   opacity:0;
   fill:#b9b9b9;
   fill-opacity:1;
   stroke:black;
   stroke-width:0.5;
   stroke-miterlimit:3.97446823;
   stroke-dasharray:none;
   stroke-opacity:1;
}

/*
 * Land
 */
.land
{
   fill: #b9b9b9;
   fill-opacity: 1;
   stroke:white;
   stroke-opacity: 1;
   stroke-width:0.5;
   stroke-miterlimit: 3.97446823;
   stroke-dasharray: none;
}

/*
 * Styles for coastlines of islands with no borders
 */
.coast
{
   stroke-width: 0.3;
}

/*
 * Additional style rules
 *
 * The following are examples of colouring countries.  You can substitute these with your own styles to colour the countries on the map.
 *
 * Color a few countries:
 *
 * .gb, .au, .nc
 * {
 *    fill:       #ff0000;
 * }
 *
 * Color a few small country circles (and the countries):
 *
 * .ms, .ky
 * {
 *    opacity:    1;
 *    fill:       #ff0000;
 * }
 *
 */

/*
 * Sea
 */

.ocean
{
   opacity: 1;
   color: #000000;
   fill:white;
   fill-opacity:1;
   fill-rule:nonzero;
   stroke:none;
   visibility:visible;
   display:inline;
   overflow:visible;
}

.lake
{
   fill:white;
   fill-opacity:1;
   stroke:white;
   stroke-opacity: 1;
   stroke-width:0.3;
   stroke-miterlimit: 3.97446823;
   stroke-dasharray: none;
}
</style>
  <g
     id="ck"
     transform="matrix(1.7547148,0,0,1.8905249,11.848403,-580.39096)"
     style="fill:#cccccc;fill-opacity:0.5076142">
    <g
       class="land coast ck"
       id="ck-"
       style="fill:#cccccc;fill-opacity:0.5076142;stroke:#ffffff;stroke-width:0.30000000999999998;stroke-miterlimit:3.97446822999999982;stroke-dasharray:none;stroke-opacity:1">
      <path
         d="M -0.795884,869.86103 C -0.482884,869.14203 -0.698884,868.90303 -1.443884,869.14103 C -1.247884,869.39903 -1.031884,869.63903 -0.795884,869.86103"
         id="path35652"
         style="fill:#cccccc;fill-opacity:0.5076142" />
      <path
         d="M 26.277116,917.31103 C 26.506116,916.66303 26.444116,916.07403 25.557116,916.81103 C 25.798116,916.97803 26.038116,917.14503 26.277116,917.31103"
         id="path35654"
         style="fill:#cccccc;fill-opacity:0.5076142" />
    </g>
    <path
       class="circle ck"
       d="M 10.217433,909.47744 C 17.940025,909.47744 17.940025,897.45135 10.217433,897.45135 C 2.4892409,897.45135 2.4892409,909.47744 10.217433,909.47744"
       id="ck."
       style="opacity:0;fill:#cccccc;fill-opacity:0.5076142;stroke:#000000;stroke-width:0.50000000000000000;stroke-miterlimit:3.97446822999999982;stroke-dasharray:none;stroke-opacity:1" />
  </g>
  <g
     transform="matrix(9.6664741,0,0,8.5400129,-14277.631,-4491.4718)"
     class="land coast ye"
     id="ye"
     style="fill:#cccccc;fill-opacity:0.5076142;stroke:#ffffff;stroke-width:0.30000000999999998;stroke-miterlimit:3.97446822999999982;stroke-dasharray:none;stroke-opacity:1">
    <path
       d="M 1625.188,684.288 C 1625.284,683.957 1625.306,683.621 1625.257,683.28 C 1624.155,683.457 1624.604,683.897 1625.188,684.288"
       id="path2190"
       style="fill:#cccccc;fill-opacity:0.5076142" />
    <path
       d="M 1698.268,699.552 C 1698.226,698.774 1697.266,699.048 1696.829,699.12 C 1697.308,699.264 1697.788,699.408 1698.268,699.552"
       id="path2192"
       style="fill:#cccccc;fill-opacity:0.5076142" />
    <path
       d="M 1708.918,698.112 C 1710.603,697.725 1713.527,697.91 1714.389,696.024 C 1713.377,695.417 1712.039,694.487 1710.791,694.768 C 1710.2,694.902 1709.69,695.289 1709.057,695.228 C 1708.387,695.165 1707.812,694.58 1707.116,694.706 C 1706.356,694.843 1705.68,696.323 1706.308,696.877 C 1706.963,697.458 1708.045,697.987 1708.918,698.112"
       id="path2194"
       style="fill:#cccccc;fill-opacity:0.5076142" />
    <path
       class="land ye"
       d="M 1702.658,660.279 C 1700.232,660.189 1701.334,655.173 1698.928,654.89 C 1700.283,653.067 1696.045,647.802 1695.362,646.026 C 1694.708,644.327 1694.319,642.111 1692.96,640.799 C 1691.515,639.406 1686.275,641.118 1684.43,641.363 C 1680.898,641.833 1677.364,642.291 1673.828,642.742 C 1670.54,643.162 1668.382,644.272 1665.641,646.094 C 1663.481,647.531 1662.77,649.189 1661.359,651.297 C 1660.138,653.121 1659.485,657.727 1656.558,657.55 C 1654.566,657.43 1654.783,654.443 1652.867,654.669 C 1650.452,654.954 1648.476,654.909 1646.028,654.565 C 1644.639,654.37 1643.215,653.381 1641.854,653.381 C 1640.347,653.381 1638.846,653.526 1637.348,653.668 C 1635.509,653.842 1633.956,654.668 1632.05,654.563 C 1631.002,654.505 1630.613,653.339 1629.542,653.206 C 1628.518,653.078 1627.73,653.769 1627.301,654.635 C 1626.832,655.58 1626.682,656.726 1626.859,657.764 C 1626.973,658.436 1627.915,659.103 1627.403,659.792 C 1626.919,660.445 1626.535,661.116 1626.037,661.796 C 1625.771,662.168 1625.436,662.461 1625.033,662.676 C 1624.073,663.156 1624.562,663.521 1624.76,664.574 C 1625.072,666.242 1624.444,667.015 1624.147,668.535 C 1623.872,669.942 1625.053,671.165 1624.919,672.564 C 1624.652,672.324 1623.218,672.287 1623.457,672.846 C 1623.406,672.729 1624.904,673.572 1624.901,673.568 C 1625.703,674.424 1626.003,675.31 1626.276,676.43 C 1626.814,678.626 1626.856,681.074 1627.546,683.21 C 1627.829,684.087 1628.533,684.743 1628.867,685.598 C 1629.268,686.629 1628.889,687.747 1628.869,688.802 C 1628.828,690.889 1631.352,692.645 1630.669,694.765 C 1631.59,694.836 1632.211,694.319 1633.143,694.691 C 1634.135,695.087 1634.817,695.414 1635.91,695.197 C 1638.165,694.75 1639.168,693.174 1641.519,694.407 C 1641.398,693.767 1642.08,693.117 1642.31,694.048 C 1642.699,693.62 1642.925,693.123 1643.239,692.647 C 1643.735,691.894 1644.54,691.911 1645.204,691.409 C 1646.684,690.291 1646.852,689.164 1648.89,688.696 C 1650.791,688.259 1652.806,688.176 1654.745,688.354 C 1655.887,688.458 1657.802,687.148 1658.946,686.824 C 1660.653,686.341 1661.498,684.864 1663,684.032 C 1663.461,683.777 1664.111,683.2 1664.61,683.051 C 1665.161,683.069 1665.686,683.2 1666.186,683.442 C 1666.75,683.469 1667.302,683.401 1667.84,683.239 C 1671.468,682.655 1672.284,678.901 1675.545,677.3 C 1677.06,676.556 1678.398,676.368 1680.017,676.085 C 1682.012,675.737 1683.666,674.399 1685.629,673.931 C 1686.994,673.605 1688.377,673.348 1689.701,672.87 C 1691.024,672.392 1691.494,671.338 1692.612,670.767 C 1693.54,670.293 1695.542,670.352 1695.827,669.092 C 1696.158,667.632 1695.144,666.304 1695.674,664.815 C 1696.742,661.806 1700.416,661.925 1702.658,660.279"
       id="path2592"
       style="fill:#cccccc;fill-opacity:0.5076142;stroke:#ffffff;stroke-width:0.50000000000000000;stroke-miterlimit:3.97446822999999982;stroke-dasharray:none;stroke-opacity:1" />
  </g>
  <path
     class="land jo"
     d="M 805.05584,210.52266 C 803.72166,189.90707 813.11759,170.2736 813.34005,149.77758 C 813.601,126.21565 825.50006,108.74278 828.72882,86.31671 C 830.08225,76.973962 827.02728,67.443283 827.8588,57.955359 C 828.65129,48.988332 833.26236,40.166481 833.63935,31.430045 C 834.41259,13.120271 830.03359,-6.9658267 829.26998,-25.446431 C 828.63204,-41.134429 851.09704,-38.213749 861.21809,-32.030776 C 877.89238,-21.851078 893.58115,-6.701079 915.99803,-10.595335 C 938.56892,-14.523748 958.72384,-33.004352 977.38951,-43.995348 C 1001.2465,-58.035098 1025.0644,-73.560865 1050.1009,-85.849946 C 1057.8242,-63.987479 1067.9549,-42.885146 1076.4904,-21.278876 C 1067.887,-20.476129 1073.5033,-10.100044 1079.0422,-8.8446184 C 1087.8194,-6.8548065 1098.8934,-8.0745165 1084.6933,5.0856711 C 1071.9895,35.751469 937.5358,51.591306 941.98003,53.697712 L 1016.5834,126.89888 C 1009.4013,130.01599 993.18363,129.90776 988.0699,135.59544 C 982.19256,142.13708 988.23513,155.07239 981.95192,161.61403 C 971.40576,172.58792 942.62867,166.78072 928.96069,178.30976 C 913.36871,191.46135 909.502,212.64914 887.23057,220.39495 C 867.07564,227.38922 825.48081,215.19406 805.05584,210.52266"
     id="jo"
     style="fill:#cccccc;fill-opacity:0.5076142;stroke:#ffffff;stroke-width:4.54290152000000003;stroke-miterlimit:3.97446822999999982;stroke-dasharray:none;stroke-opacity:1" />
  <g
     transform="matrix(9.6664741,0,0,8.5400129,-14277.631,-4491.4718)"
     class="land coast ae"
     id="ae"
     style="fill:#cccccc;fill-opacity:0.5076142;stroke:#ffffff;stroke-width:0.30000000999999998;stroke-miterlimit:3.97446822999999982;stroke-dasharray:none;stroke-opacity:1">
    <path
       d="M 1703.018,595.872 C 1703.518,595.905 1703.901,595.713 1704.168,595.296 C 1703.515,594.756 1702.689,594.883 1702.298,595.656 C 1702.538,595.729 1702.777,595.8 1703.018,595.872"
       id="path2704"
       style="fill:#cccccc;fill-opacity:0.5076142" />
    <path
       class="land ae"
       d="M 1686.389,594.576 C 1686.878,594.253 1687.069,594.445 1686.958,595.152 C 1687.192,594.93 1687.433,594.714 1687.678,594.504 C 1688.145,595.186 1687.731,596.172 1688.258,596.808 C 1688.768,597.423 1689.948,597.281 1690.639,597.241 C 1691.537,597.188 1692.294,597.046 1692.985,596.425 C 1693.299,596.143 1693.662,595.318 1694.089,595.225 C 1694.552,595.122 1695.706,595.819 1696.275,595.831 C 1697.208,595.852 1698.137,595.96 1699.069,595.927 C 1701.602,595.837 1703.349,597.003 1705.83,595.513 C 1705.605,595.166 1705.365,594.83 1705.11,594.505 C 1705.891,594.21 1705.783,595.15 1706.4,595.081 C 1707.298,594.981 1708.06,593.898 1708.426,593.18 C 1709.422,591.222 1709.549,590.107 1711.292,588.652 C 1712.989,587.235 1713.681,584.68 1715.285,583.357 C 1717.061,581.893 1718.127,581.502 1718.639,579.097 C 1719.933,579.163 1719.375,581.035 1719.385,581.825 C 1719.403,583.319 1721.026,582.562 1721.22,584.222 C 1721.414,585.887 1722.117,587.467 1721.241,589.082 C 1720.054,591.271 1719.766,590.321 1719.045,588.953 C 1718.2,587.353 1717.607,589.949 1717.738,590.666 C 1717.837,591.204 1718.019,591.316 1717.675,591.787 C 1717.224,592.405 1718.14,593.292 1717.992,594.002 C 1717.755,595.139 1719.992,595.102 1719.221,596.229 C 1718.516,597.262 1716.643,596.629 1715.826,597.602 C 1717.063,598.328 1716.07,600.343 1715.685,601.275 C 1714.965,603.017 1714.43,604.693 1714.553,606.589 C 1714.681,608.567 1713.672,609.019 1711.949,608.615 C 1709.829,608.118 1707.637,607.918 1705.485,607.599 C 1703.228,607.265 1700.972,606.934 1698.708,606.652 C 1697.045,606.444 1695.051,606.774 1693.936,605.294 C 1692.804,603.791 1691.725,602.267 1690.535,600.803 C 1689.704,599.78 1688.853,598.775 1688.015,597.758 C 1687.172,596.729 1687.038,595.666 1686.389,594.576"
       id="path2784"
       style="fill:#cccccc;fill-opacity:0.5076142;stroke:#ffffff;stroke-width:0.50000000000000000;stroke-miterlimit:3.97446822999999982;stroke-dasharray:none;stroke-opacity:1" />
  </g>
  <path
     class="land iq"
     d="M 1050.0913,-85.849946 C 1092.5348,-103.81967 1130.1084,-121.74564 1164.581,-146.09118 C 1175.8276,-154.03427 1189.8491,-159.6954 1198.4616,-170.15695 C 1210.8543,-185.23009 1205.0737,-199.88475 1204.6192,-216.9477 C 1204.2326,-231.43153 1216.345,-255.50585 1208.4281,-268.36708 C 1201.1781,-280.13522 1189.9748,-303.64589 1203.2176,-315.80684 C 1212.4398,-324.28708 1228.7467,-321.0675 1239.1961,-329.92351 C 1247.3546,-336.84091 1263.7974,-348.25893 1264.8898,-359.05349 C 1265.3246,-363.42599 1270.187,-361.76069 1275.1847,-363.10143 C 1283.44,-365.30478 1283.2657,-372.46983 1287.0452,-378.19167 C 1290.6799,-383.70852 1327.8283,-377.75614 1335.3971,-375.88585 C 1341.9797,-374.26326 1348.2148,-371.67564 1354.9333,-370.45441 C 1365.9816,-368.43895 1369.2782,-374.80125 1378.8961,-376.32993 C 1401.1969,-379.87403 1386.1076,-352.14464 1400.3269,-353.34876 C 1410.3314,-354.20276 1414.7975,-366.67973 1425.8175,-366.31251 C 1439.8047,-365.85133 1437.3588,-345.71397 1443.4971,-338.44645 C 1446.4066,-334.99628 1451.6653,-335.60259 1454.0919,-331.28135 C 1457.0496,-326.00364 1455.6961,-319.85483 1460.104,-315.01265 C 1468.7171,-305.56739 1489.9062,-295.05463 1482.2984,-279.52891 C 1497.823,-282.63747 1499.7369,-274.21699 1511.5007,-268.46105 C 1517.6389,-265.45495 1547.1604,-264.85714 1554.0238,-266.61637 C 1551.5009,-257.01742 1538.3928,-259.67335 1533.8592,-252.2521 C 1526.1841,-239.71533 1548.601,-229.96266 1549.848,-218.57029 C 1551.4816,-203.53131 1530.6791,-220.06476 1531.2786,-204.82085 C 1531.5395,-197.9547 1520.6939,-198.68058 1518.548,-192.21581 C 1516.1213,-184.90553 1522.6366,-179.89257 1524.0574,-173.1545 C 1518.7993,-173.1801 1513.9273,-174.40987 1509.4515,-176.85232 C 1508.2435,-170.69495 1502.8785,-166.65552 1508.6879,-160.84831 C 1514.5556,-154.9728 1518.5378,-152.32541 1515.6577,-143.96475 C 1512.6418,-135.20266 1504.1351,-133.05057 1512.6316,-126.26128 C 1519.9105,-120.45408 1526.3098,-113.51102 1534.4876,-108.65179 C 1542.6557,-103.80106 1583.3228,-71.571054 1560.9738,-65.550312 C 1568.3303,-63.048107 1566.4453,-54.354379 1574.6135,-55.174227 C 1585.0917,-56.224619 1593.7433,-51.49346 1602.0564,-46.480498 C 1617.9676,-36.898561 1633.2403,-17.837251 1654.13,-19.698988 C 1663.2452,-20.518837 1686.184,14.597689 1692.2832,21.182035 C 1704.5112,34.376379 1698.1221,43.924112 1694.4874,59.458383 C 1692.7474,66.879631 1690.5047,89.886456 1702.9551,90.672148 C 1707.3244,90.953951 1715.8503,86.923069 1719.2722,90.774618 C 1723.6896,95.719266 1721.7469,107.00061 1722.9068,113.02136 C 1725.7778,127.93221 1736.3914,132.91102 1746.8022,141.62185 C 1754.6223,148.16349 1760.2002,161.6994 1766.2994,168.73637 C 1760.0258,169.15485 1721.8918,161.86167 1721.0603,155.81533 C 1726.2126,166.55868 1700.9252,157.07926 1692.5634,156.75475 C 1680.4708,156.29361 1668.7263,159.67543 1663.2548,169.95759 C 1651.3846,192.23849 1649.335,231.6592 1613.2309,232.55591 C 1585.6425,233.23908 1554.6617,228.6446 1526.9092,226.79991 C 1491.1628,224.41728 1470.9405,204.52757 1445.1307,184.8941 C 1417.3397,163.74902 1386.9675,145.36238 1358.9347,124.46498 C 1332.1009,104.46425 1305.2088,83.122778 1272.5939,70.705575 C 1239.873,58.237161 1212.9809,40.695977 1182.783,24.316252 C 1154.0926,8.7563281 1117.389,11.864892 1085.5767,5.8014912 C 1107.5294,-10.808825 1079.332,-6.0691145 1073.4451,-14.062566 C 1071.8018,-15.932854 1071.628,-17.871455 1072.8943,-19.869817 C 1077.8144,-24.857174 1072.9424,-30.083672 1069.8687,-37.359744 C 1063.0347,-53.466217 1055.8815,-69.45312 1050.0913,-85.849946"
     id="iq"
     style="fill:#cccccc;fill-opacity:0.5076142;stroke:#ffffff;stroke-width:4.54290152000000003;stroke-miterlimit:3.97446822999999982;stroke-dasharray:none;stroke-opacity:1" />
  <path
     class="land sy"
     d="M 828.05238,-78.471358 C 838.22155,-83.441659 846.34106,-99.129658 856.56851,-101.22194 C 840.11614,-114.7835 863.62496,-123.31495 877.43839,-119.66839 C 865.29709,-132.70045 887.37548,-133.05912 889.7631,-145.87769 C 891.13578,-153.19647 884.29163,-167.50952 875.61118,-168.85032 C 865.38425,-170.4302 877.3416,-186.80998 863.90516,-180.19147 C 845.41328,-171.09632 837.85418,-187.39068 835.10882,-200.13239 C 832.78858,-210.93551 842.02035,-231.08992 830.88437,-239.15173 C 821.96221,-245.6165 822.56166,-260.2199 822.22316,-269.67372 C 821.97184,-276.77046 842.02035,-268.84532 844.89137,-267.58994 C 847.01804,-266.65907 854.82847,-274.31946 858.0567,-276.63383 C 865.1618,-281.72366 858.64652,-290.221 860.0192,-296.75409 C 866.83394,-295.30227 874.07433,-297.02738 880.8987,-297.36044 C 875.33097,-307.24124 869.11514,-309.80325 870.32366,-321.69091 C 870.7584,-326.02925 868.97985,-338.66849 875.84326,-340.18007 C 881.00511,-341.32443 889.35723,-335.98691 893.46511,-334.07396 C 904.54281,-328.92433 903.06425,-326.42212 914.4799,-327.99346 C 928.40937,-329.91496 935.69789,-330.51276 948.98942,-335.58553 C 962.61943,-340.78638 977.47668,-346.9352 992.77883,-344.99664 C 1004.0784,-343.57043 1009.5018,-337.12271 1019.0619,-333.1687 C 1029.946,-328.65958 1051.6859,-328.5315 1063.2957,-330.57253 C 1092.846,-335.76487 1116.1227,-346.52527 1143.1213,-357.46506 C 1169.7236,-368.25107 1199.7573,-354.35649 1228.5633,-363.08438 C 1243.343,-367.56789 1264.3487,-387.58567 1265.5567,-358.69483 C 1265.847,-351.58954 1246.4557,-337.20813 1240.8104,-332.27198 C 1230.5739,-323.31356 1219.1577,-323.94547 1207.6255,-317.96749 C 1182.8793,-305.13186 1208.8051,-277.34266 1210.7478,-262.00478 C 1211.8981,-252.93528 1205.6924,-241.80766 1204.948,-232.43071 C 1203.8556,-218.46777 1206.0897,-194.45232 1203.8951,-180.76268 C 1199.3616,-152.52941 1000.4149,-57.309215 972.29557,-40.52807 C 950.90325,-27.760752 916.52956,3.341946 888.82516,-13.789314 C 878.74316,-20.014994 869.38626,-22.722138 861.08226,-31.11701 C 849.34737,-42.979064 845.2197,-31.825791 833.89068,-35.113735 C 827.05669,-37.120602 837.69911,-74.457578 828.05238,-78.471358"
     id="sy"
     style="fill:#cccccc;fill-opacity:0.5076142;stroke:#ffffff;stroke-width:4.54290152000000003;stroke-miterlimit:3.97446822999999982;stroke-dasharray:none;stroke-opacity:1" />
  <g
     transform="matrix(9.6664741,0,0,8.5400129,-14277.631,-4491.4718)"
     class="land coast om"
     id="om"
     style="fill:#cccccc;fill-opacity:0.5076142;stroke:#ffffff;stroke-width:0.30000000999999998;stroke-miterlimit:3.97446822999999982;stroke-dasharray:none;stroke-opacity:1">
    <path
       d="M 1741.968,630.145 C 1742.639,629.55 1742.871,628.756 1743.193,627.955 C 1743.376,627.714 1743.59,627.509 1743.839,627.337 C 1744.112,627.016 1743.415,626.015 1743.338,625.68 C 1742.967,627.242 1741.335,628.403 1741.968,630.145"
       id="path4692"
       style="fill:#cccccc;fill-opacity:0.5076142" />
    <path
       class="land om"
       d="M 1718.639,579.096 C 1718.846,578.517 1719.109,577.966 1719.428,577.441 C 1720.108,578.201 1720.762,577.167 1720.439,576.504 C 1721.023,576.82 1722.196,578.807 1720.729,578.448 C 1721.672,579.103 1720.983,583.117 1719.942,582.932 C 1718.528,582.682 1720.443,579.188 1718.639,579.096"
       id="path4696"
       style="fill:#cccccc;fill-opacity:0.5076142;stroke:#ffffff;stroke-width:0.50000000000000000;stroke-miterlimit:3.97446822999999982;stroke-dasharray:none;stroke-opacity:1" />
    <path
       class="land om"
       d="M 1692.938,640.224 C 1698.811,637.881 1704.724,635.638 1710.618,633.348 C 1712.827,632.49 1715.099,632.455 1715.386,629.847 C 1715.751,626.513 1716.754,623.146 1717.443,619.863 C 1717.914,617.619 1719.219,614.828 1717.929,612.704 C 1717,611.176 1715.116,609.87 1714.53,608.182 C 1713.793,606.06 1717.8,598.757 1715.829,597.601 C 1716.714,596.547 1718.451,597.459 1719.219,596.45 C 1720.062,595.343 1718.706,595.712 1718.429,595.154 C 1717.693,593.668 1717.105,590.405 1718.096,588.898 C 1718.558,588.194 1719.499,589.276 1719.353,589.833 C 1718.894,591.57 1720.648,589.687 1720.926,589.423 C 1721.784,588.605 1721.776,588.743 1722.31,589.897 C 1723.198,591.815 1724.36,593.628 1725.775,595.2 C 1728.012,597.685 1731.142,598.578 1734.328,599.218 C 1735.819,599.517 1737.086,600.104 1738.604,600.274 C 1740.634,600.502 1741.744,602.974 1742.906,604.354 C 1743.844,605.467 1744.481,606.811 1745.416,607.876 C 1746.389,608.985 1746.903,609.031 1748.188,609.544 C 1751.201,610.748 1747.793,615.024 1747.193,616.791 C 1746.059,620.129 1742.483,621.871 1741.514,625.447 C 1741.285,626.291 1740.974,628.732 1739.636,628.33 C 1738.577,628.013 1738.783,625.993 1737.429,626.834 C 1735.814,627.812 1735.902,631.327 1735.486,632.772 C 1734.941,634.661 1735.557,636.125 1736.056,637.955 C 1736.463,639.451 1736.719,640.582 1734.902,640.637 C 1731.982,640.724 1728.77,641.585 1728.051,644.733 C 1727.769,645.97 1727.544,647.33 1726.767,648.375 C 1725.8,649.676 1723.873,649.605 1722.344,649.72 C 1720.492,649.858 1719.75,650.159 1718.663,651.618 C 1717.61,653.03 1718.294,653.299 1718.206,654.912 C 1718.136,656.195 1716.825,657.126 1715.792,657.629 C 1715.294,657.87 1714.793,658.194 1714.284,657.793 C 1713.405,657.1 1712.68,657.289 1711.589,657.289 C 1708.43,657.289 1706.026,660.219 1702.841,660.129 C 1700.778,660.07 1701.344,655.155 1699.129,654.913 C 1700.068,653.933 1697.776,650.487 1697.31,649.624 C 1695.68,646.612 1694.006,643.48 1692.938,640.224"
       id="path4786"
       style="fill:#cccccc;fill-opacity:0.5076142;stroke:#ffffff;stroke-width:0.50000000000000000;stroke-miterlimit:3.97446822999999982;stroke-dasharray:none;stroke-opacity:1" />
  </g>
  <path
     class="land eg"
     d="M 79.86729,163.17686 C 66.09236,143.69708 92.965238,123.4487 90.973862,103.31134 C 88.63437,79.689657 69.87191,59.526696 100.06018,41.43041 C 100.79492,57.058647 121.41346,51.464932 132.10454,48.655271 C 151.64077,43.522739 167.64824,49.244528 187.05881,50.969593 C 208.29605,52.848432 228.67288,57.02449 249.23314,61.86667 C 257.92375,63.916291 259.30606,72.268408 268.13143,74.676695 C 275.97073,76.811683 281.93523,75.949128 289.70716,75.223245 C 294.92677,74.727906 297.34326,81.935712 303.23023,83.011758 C 309.6776,84.190272 316.2608,84.215877 322.76646,84.78808 C 343.67483,86.615614 357.63318,98.204417 377.24641,101.09949 C 396.21207,103.9006 414.34621,92.619253 427.94735,82.371242 C 435.00379,77.059329 441.57683,71.286281 448.04399,65.419315 C 453.58284,69.236707 457.75863,73.16512 464.76695,72.182993 C 460.76494,70.406671 461.63497,69.390435 456.35707,69.723495 C 463.21031,66.512415 470.05446,60.679605 471.7266,53.736593 C 483.56791,59.987878 494.70389,48.757741 506.52594,48.834604 C 498.58023,52.06274 490.95321,56.07652 484.88283,61.738548 C 486.98009,60.645448 534.94529,47.835423 512.04554,46.366555 C 528.99095,41.413356 539.99111,58.55312 556.2697,56.512097 C 564.04162,55.538521 571.36865,48.74919 579.61435,51.29415 C 587.27987,53.651178 590.89472,63.463659 597.6902,67.272501 C 590.80809,63.019579 583.76127,53.676784 574.68404,53.138785 C 577.37165,59.509641 567.43456,71.55958 579.16945,74.03618 C 591.92944,76.726269 585.95531,79.518875 594.21064,86.333811 C 594.21064,83.823055 616.97511,75.334265 600.49385,68.502274 C 618.02855,72.10613 623.85776,86.402124 644.42764,84.813686 C 651.09747,84.301292 670.78824,73.421317 667.28889,86.333811 C 680.03926,79.177263 694.34572,83.353322 708.04311,79.706758 C 720.10687,76.504229 730.87442,73.87083 740.55056,66.449582 C 753.61375,92.583726 764.5722,117.966 776.95519,144.03869 C 782.96782,156.67788 807.34667,191.46135 796.26897,203.89561 C 781.41119,220.59134 789.08687,249.54199 779.63264,269.32068 C 774.10342,280.88383 774.3355,288.09159 774.48041,300.31236 C 774.60608,310.76535 759.56542,320.87674 763.26743,331.06494 C 756.08532,325.19798 746.47656,322.55055 738.55009,317.6486 C 728.48733,311.42293 721.45014,302.35343 714.55786,293.58284 C 705.82929,282.46372 680.30021,275.20475 684.00223,258.50902 C 687.73365,241.68517 669.36743,230.0195 659.98112,218.16599 C 646.99921,201.79477 637.73857,182.72491 632.47992,163.20247 C 623.76097,171.47772 614.48107,189.5313 623.57702,198.97656 C 639.1305,215.1599 637.51612,235.02396 650.55631,251.74529 C 661.84683,266.22917 673.2919,283.95824 687.40478,296.31563 C 693.64949,301.78123 700.77384,306.48678 706.46723,312.43921 C 709.44467,315.55628 721.7111,333.42202 706.92176,323.67785 C 718.88873,331.9275 708.99014,342.4317 716.57865,349.22954 C 726.76707,358.35029 732.18026,368.0176 737.5159,379.51244 C 740.1356,385.16591 744.45631,390.00814 748.1781,395.08941 C 751.02025,398.97512 745.37499,403.92832 745.12366,407.72866 C 744.77555,412.80998 754.17148,420.3508 756.73289,424.7318 C 762.61986,434.75777 769.03835,444.54464 774.98307,454.55356 C 794.50005,487.43258 814.19991,519.73094 832.67254,553.11385 C 839.90331,566.17152 850.52647,575.52282 859.6037,587.2568 C 868.05208,598.17948 882.8612,601.5613 890.69088,612.67187 C 883.28632,613.02203 875.81438,611.88617 869.14455,608.98259 C 864.2629,626.82268 871.27122,647.42117 876.92611,664.57809 C 880.5217,675.50927 864.05008,695.13424 850.27515,695.28796 C 843.08341,695.36483 834.57729,689.93339 830.44962,698.36237 C 827.22085,704.96382 825.63535,712.51319 823.1611,719.37934 C 820.31895,727.31303 816.0945,734.32435 806.17719,736.36542 C 798.15393,738.01367 781.10211,735.40895 776.83916,743.53902 C 769.04798,758.42428 774.99269,771.4734 751.35821,774.12938 C 728.97074,776.64013 720.94749,756.83584 702.01123,753.29174 C 663.82858,746.13519 622.13696,760.02126 583.10354,754.09449 C 584.18639,750.75533 588.55576,743.69275 585.85852,740.25968 C 579.06303,731.5745 573.85305,747.32226 571.60072,750.16608 C 562.58178,761.55844 517.51648,754.70935 503.07526,754.70935 C 451.06955,754.70935 399.06385,754.70935 347.05814,754.70935 C 295.10056,754.70935 243.16276,754.70935 191.20573,754.70935 C 168.19956,754.70935 140.63045,758.43283 118.02053,754.51296 C 112.09506,753.47963 113.11963,708.49081 112.88755,702.51282 C 109.18554,610.43441 107.88077,518.08269 105.01937,425.94451 C 103.61781,381.03256 104.75842,336.10356 101.74248,291.22581 C 100.29226,269.59393 100.8917,246.90311 97.508398,225.47622 C 94.608497,207.04688 89.253065,179.78718 79.86729,163.17686"
     id="eg"
     style="fill:#cccccc;fill-opacity:0.5076142;stroke:#ffffff;stroke-width:4.54290152000000003;stroke-miterlimit:3.97446822999999982;stroke-dasharray:none;stroke-opacity:1" />
  <g
     transform="matrix(9.6664741,0,0,8.5400129,-14277.631,-4491.4718)"
     class="land coast sa"
     id="sa"
     style="fill:#cccccc;fill-opacity:0.5076142;stroke:#ffffff;stroke-width:0.30000000999999998;stroke-miterlimit:3.97446822999999982;stroke-dasharray:none;stroke-opacity:1">
    <path
       d="M 1619.718,661.32 C 1619.677,660.509 1619.342,659.753 1618.639,659.303 C 1618.623,659.568 1618.596,659.832 1618.559,660.095 C 1617.621,660.132 1617.284,659.141 1616.479,658.871 C 1617.259,660.169 1619.268,660.143 1619.718,661.32"
       id="path3234"
       style="fill:#cccccc;fill-opacity:0.5076142" />
    <path
       class="land sa"
       d="M 1624.548,662.653 C 1624.645,661.745 1624.091,659.593 1623.274,659.073 C 1622.858,658.808 1620.843,654.574 1620.959,656.617 C 1620.772,652.958 1618.236,652.017 1616.218,649.54 C 1615.454,648.602 1614.376,647.248 1614.018,646.101 C 1613.555,644.621 1612.72,644.199 1611.962,642.996 C 1611.518,642.29 1611.896,641.674 1611.384,640.949 C 1611.019,640.434 1610.409,638.795 1610.168,638.134 C 1609.942,637.515 1609.805,636.861 1609.515,636.266 C 1609.248,635.719 1608.691,635.642 1608.423,635.161 C 1608.167,634.699 1608.418,634.069 1608.064,633.664 C 1607.705,633.255 1607.119,633.198 1606.73,632.836 C 1605.753,631.927 1604.622,631.008 1603.759,629.995 C 1602.712,628.765 1601.485,629.28 1600.304,628.41 C 1598.345,626.964 1597.042,624.279 1595.811,622.223 C 1595.094,621.026 1595.3,620.341 1595.24,619.078 C 1595.174,617.71 1594.184,616.578 1594.082,615.195 C 1593.948,613.38 1594.699,611.575 1594.338,609.767 C 1594.173,608.943 1593.723,608.246 1593.281,607.551 C 1593.049,607.185 1591.642,605.37 1593.23,606.611 C 1592.881,605.699 1592.088,605.689 1591.882,604.69 C 1591.697,603.797 1591.259,602.82 1590.91,601.977 C 1589.944,599.642 1588.059,598.051 1586.292,596.371 C 1585.003,595.147 1583.726,594.954 1582.154,594.524 C 1581.484,594.341 1581.164,593.066 1580.967,592.522 C 1580.545,591.356 1579.729,590.556 1578.998,589.584 C 1581.528,588.662 1578.004,584.509 1577.178,583.504 C 1576.621,582.829 1575.058,581.599 1575.125,580.708 C 1575.242,579.173 1573.265,578.286 1572.6,576.905 C 1570.584,572.715 1567.402,569.234 1565.168,565.123 C 1564.487,563.871 1563.727,561.94 1562.226,561.517 C 1561.544,561.325 1558.862,560.879 1558.809,562.138 C 1557.912,561.318 1559.362,559.163 1559.614,558.302 C 1560.142,556.497 1559.788,554.629 1560.015,552.797 C 1560.311,550.414 1560.746,550.644 1562.807,550.932 C 1564.53,551.173 1566.817,552.19 1568.536,551.96 C 1572,551.494 1571.897,546.25 1575.106,545.744 C 1576.309,545.554 1579.2619,545.85807 1579.133,544.236 C 1578.8389,540.53658 1580.4483,541.64719 1582.6876,540.89194 L 1578.639,536.848 C 1577.094,535.401 1575.9332,533.84939 1574.5342,532.26539 C 1574.5342,532.26539 1584.688,529.218 1586.531,528.502 C 1588.07,527.904 1589.262,526.576 1590.983,526.932 C 1593.677,527.49 1596.494,527.606 1599.035,528.741 C 1608.644,533.036 1616.549,539.891 1624.84,546.2 C 1626.596,547.537 1628.305,548.864 1629.944,550.337 C 1631.811,552.014 1633.268,551.994 1635.728,552.232 C 1638.564,552.506 1641.393,552.843 1644.23,553.105 C 1645.271,553.202 1645.785,552.671 1646.915,552.915 C 1648.442,553.244 1650.026,553.43 1651.581,553.571 C 1653.229,553.719 1653.359,555.635 1653.885,556.848 C 1654.664,558.65 1657.289,557.512 1658.779,557.643 C 1660.32,557.779 1660.521,558.614 1661.025,559.875 C 1661.57,561.24 1664.28,562.979 1663.859,564.51 C 1663.72,564.269 1663.55,564.053 1663.348,563.863 C 1662.887,564.96 1663.993,564.835 1663.859,565.803 C 1663.878,565.818 1668.491,566.245 1666.729,567.6 C 1667.405,567.814 1668.84,571.275 1669.529,569.325 C 1669.069,571.061 1673.235,573.011 1674.199,574.066 C 1673.685,573.912 1673.302,573.6 1673.049,573.132 C 1673.073,575.046 1674.233,575.074 1674.645,576.61 C 1674.886,577.51 1674.79,579.409 1673.48,578.234 C 1673.599,579.255 1673.269,579.458 1674.197,579.646 C 1674.34,579.674 1675.556,582.311 1675.64,582.617 C 1675.37,582.384 1675.107,582.144 1674.849,581.898 C 1675.646,583.067 1677.069,583.724 1677.699,585.018 C 1678.338,586.326 1678.532,587.526 1679.3,588.797 C 1679.89,589.775 1680.743,591.451 1681.965,591.751 C 1682.524,591.888 1684.552,591.358 1684.26,592.461 C 1684.474,591.901 1684.959,591.696 1685.481,592.029 C 1684.798,592.863 1683.894,595.169 1686.201,594.58 C 1686.049,594.619 1687.668,597.089 1687.796,597.272 C 1688.814,598.714 1689.943,600.076 1691.028,601.467 C 1692.33,603.136 1693.917,605.999 1696.155,606.395 C 1699.584,607 1703.098,607.046 1706.545,607.711 C 1707.554,607.905 1713.95,609.569 1714.371,608.051 C 1715.613,609.832 1716.856,611.614 1718.099,613.395 C 1719.095,614.823 1717.727,617.853 1717.412,619.351 C 1716.954,621.539 1716.495,623.727 1716.036,625.915 C 1715.765,627.208 1715.641,631.187 1714.378,631.771 C 1711.188,633.246 1707.675,634.271 1704.392,635.548 C 1702.474,636.294 1700.555,637.04 1698.636,637.785 C 1697.677,638.158 1696.718,638.531 1695.759,638.904 C 1695.1,639.161 1692.67,639.68 1693.101,640.382 C 1688.152,641.072 1683.2,641.737 1678.245,642.38 C 1675.973,642.675 1673.574,642.772 1671.399,643.541 C 1669.473,644.223 1667.751,645.354 1665.99,646.366 C 1663.339,647.89 1660.637,652.044 1660.078,655.011 C 1659.831,656.316 1658.413,657.603 1657.018,657.609 C 1655.56,657.615 1655.264,655.673 1654.166,655.068 C 1653.091,654.476 1651.113,655.322 1649.922,655.193 C 1648.114,654.997 1645.967,654.981 1644.241,654.389 C 1642.215,653.694 1640.823,653.532 1638.665,653.532 C 1636.774,653.532 1635.127,654.738 1633.245,654.797 C 1631.804,654.842 1630.588,652.99 1629.349,653.308 C 1627.716,653.727 1627.574,655.941 1627.482,657.294 C 1627.392,658.629 1628.779,659.697 1627.425,660.37 C 1626.065,661.047 1626.683,663.162 1624.581,663.183 C 1624.568,663.004 1624.558,662.828 1624.548,662.653"
       id="path3380"
       style="fill:#cccccc;fill-opacity:0.5076142;stroke:#ffffff;stroke-width:0.50000000000000000;stroke-miterlimit:3.97446822999999982;stroke-dasharray:none;stroke-opacity:1" />
    <path
       d="M 1617.268,657.504 C 1617.799,657.636 1617.918,657.804 1617.628,658.008 C 1617.508,657.84 1617.388,657.672 1617.268,657.504"
       id="path5480"
       style="fill:#cccccc;fill-opacity:0.5076142" />
    <path
       d="M 1617.628,658.008 C 1617.847,658.318 1617.893,658.654 1617.768,659.016 C 1617.504,658.943 1617.265,658.823 1617.048,658.657 C 1617.241,658.44 1617.435,658.224 1617.628,658.008"
       id="path5482"
       style="fill:#cccccc;fill-opacity:0.5076142" />
    <path
       d="M 1668.889,568.368 C 1669.244,567.829 1669.799,567.973 1670.189,568.368 C 1669.755,568.451 1669.322,568.451 1668.889,568.368"
       id="path5488"
       style="fill:#cccccc;fill-opacity:0.5076142" />
  </g>
  <path
     class="land il"
     d="M 745.88727,74.019125 C 749.25133,69.945536 767.55926,50.431594 759.13014,45.734591 C 773.50451,24.580952 776.91669,0.011341315 782.12668,-23.746972 C 783.73143,-31.014493 783.96351,-42.96201 790.61409,-48.197012 C 795.60162,-52.116874 788.01364,-60.605664 792.56643,-64.944001 C 796.75238,-68.923624 806.91139,-64.901293 811.75454,-64.371798 C 823.20923,-63.124971 821.69163,-73.57792 825.24873,-79.70113 C 838.5595,-74.901658 831.24211,-25.899062 828.7192,-13.293976 C 821.72051,-13.789314 815.66938,-20.740877 808.84501,-23.157715 C 798.62718,-26.761571 793.32041,-14.062566 791.9381,-7.3928527 C 790.25634,0.79703332 783.61539,29.559805 797.92186,28.910738 C 823.92471,27.732224 786.38001,45.418585 789.49273,60.295286 C 791.6194,70.415222 823.36377,52.558031 829.39565,52.498269 C 830.72983,63.087892 824.84286,69.945536 828.30371,80.876722 C 832.17951,93.182905 819.33289,108.19623 815.48596,119.51174 C 807.68516,142.40754 821.30501,182.28083 800.21269,201.29093 C 789.02858,181.38417 789.90823,157.42942 775.27343,138.82924 C 769.13514,131.02368 767.98384,121.12191 763.90537,112.51747 C 757.83285,99.705173 751.05875,88.323104 745.88727,74.019125"
     id="il"
     style="fill:#cccccc;fill-opacity:0.5076142;stroke:#ffffff;stroke-width:4.54290152000000003;stroke-miterlimit:3.97446822999999982;stroke-dasharray:none;stroke-opacity:1" />
  <g
     transform="matrix(9.6664741,0,0,8.5400129,-13988.587,-4106.5352)"
     id="lb"
     style="fill:#cccccc;fill-opacity:0.5076142">
    <path
       class="land lb"
       d="M 1529.1163,473.25355 C 1530.7063,471.39955 1530.6543,468.05455 1532.0043,465.97055 C 1532.6733,464.93855 1531.8893,463.54455 1532.6573,462.54955 C 1533.2563,461.77555 1534.8933,460.91955 1534.3663,459.71755 C 1534.9833,459.84755 1535.9173,460.11055 1536.5083,459.75855 C 1537.8673,458.94855 1536.9073,460.49055 1537.1073,460.95455 C 1537.0813,460.89255 1538.0023,461.23655 1538.0983,461.32955 C 1538.7833,461.98855 1538.3973,461.84255 1538.9153,462.79255 C 1540.0193,464.81355 1536.4923,465.13755 1537.8963,466.84455 C 1536.4673,466.41755 1534.0353,467.41655 1535.7373,469.00455 C 1535.1033,469.15055 1532.9513,471.23855 1532.8563,471.88455 C 1532.7003,471.80155 1532.5803,471.68155 1532.4973,471.52455 C 1532.2603,471.98955 1532.3373,472.60255 1531.9923,473.01555 C 1531.3763,473.75455 1529.9043,473.27755 1529.1163,473.25355"
       id="lb-"
       style="fill:#cccccc;fill-opacity:0.5076142;stroke:#ffffff;stroke-width:0.50000000000000000;stroke-miterlimit:3.97446822999999982;stroke-dasharray:none;stroke-opacity:1" />
    <path
       class="circle lb"
       d="M 1533.8287,472.0092 C 1541.5513,472.0092 1541.5513,459.98314 1533.8287,459.98314 C 1526.1005,459.98314 1526.1005,472.0092 1533.8287,472.0092"
       id="lb."
       style="opacity:0;fill:#cccccc;fill-opacity:0.5076142;stroke:#000000;stroke-width:0.50000000000000000;stroke-miterlimit:3.97446822999999982;stroke-dasharray:none;stroke-opacity:1" />
  </g>
  <g
     transform="matrix(9.6664741,0,0,8.5400129,-13988.587,-4106.5352)"
     id="kw"
     style="fill:#cccccc;fill-opacity:0.5076142">
    <g
       transform="translate(-29.90172,-45.07447)"
       class="land kw"
       id="kw-"
       style="fill:#cccccc;fill-opacity:0.5076142;stroke:#ffffff;stroke-width:0.50000000000000000;stroke-miterlimit:3.97446822999999982;stroke-dasharray:none;stroke-opacity:1">
      <path
         d="M 1657.008,545.256 C 1657.149,545.569 1655.306,548.614 1657.588,548.388 C 1659.563,548.192 1657.552,545.925 1657.008,545.256"
         id="path5440"
         style="fill:#cccccc;fill-opacity:0.5076142" />
      <path
         d="M 1645.708,552.815 C 1648.219,550.898 1647.694,545.161 1650.765,544.538 C 1652.234,544.24 1654.763,544.078 1655.596,545.58 C 1655.872,546.078 1657.164,548.288 1656.718,548.856 C 1655.766,547.521 1654.412,549.785 1653.908,550.44 C 1655.37,550.246 1656.997,550.814 1657.358,552.394 C 1657.798,554.315 1659.241,555.699 1659.888,557.639 C 1658.615,557.639 1655.438,558.302 1654.375,557.601 C 1653.409,556.963 1653.48,555.415 1652.936,554.501 C 1651.748,552.508 1647.646,553.033 1645.708,552.815"
         id="path5486"
         style="fill:#cccccc;fill-opacity:0.5076142" />
    </g>
    <path
       class="circle kw"
       d="M 1623.295,511.16096 C 1631.0176,511.16096 1631.0176,499.13485 1623.295,499.13485 C 1615.5669,499.13485 1615.5669,511.16096 1623.295,511.16096"
       id="kw."
       style="opacity:0;fill:#cccccc;fill-opacity:0.5076142;stroke:#000000;stroke-width:0.50000000000000000;stroke-miterlimit:3.97446822999999982;stroke-dasharray:none;stroke-opacity:1" />
  </g>
  <g
     transform="matrix(9.6664741,0,0,8.5400129,-13988.587,-4106.5352)"
     id="qa"
     style="fill:#cccccc;fill-opacity:0.5076142">
    <path
       class="land qa"
       d="M 1649.7863,540.78955 C 1649.7423,540.39955 1649.1783,538.00355 1650.2863,539.13355 C 1650.2233,538.74555 1649.9693,536.59155 1650.6563,538.41355 C 1650.7113,536.59755 1651.3583,531.80455 1653.8603,534.44755 C 1654.4873,535.11055 1655.6913,535.57555 1655.6973,536.61555 C 1655.7023,537.34155 1655.3433,537.80155 1655.1783,538.46455 C 1655.0343,539.03855 1655.3853,539.78455 1655.4413,540.35755 C 1655.4963,540.93055 1656.1053,540.94155 1656.2653,541.43755 C 1656.5293,542.24655 1656.3333,542.98055 1656.0063,543.72755 C 1655.4403,545.02055 1655.6263,545.96455 1654.2083,546.38955 C 1653.0303,546.74355 1651.9693,547.68055 1651.1803,545.95055 C 1650.4603,544.37255 1650.1603,542.47355 1649.7863,540.78955"
       id="qa-"
       style="fill:#cccccc;fill-opacity:0.5076142;stroke:#ffffff;stroke-width:0.50000000000000000;stroke-miterlimit:3.97446822999999982;stroke-dasharray:none;stroke-opacity:1" />
    <path
       class="circle qa"
       d="M 1652.491,548.0035 C 1660.2136,548.0035 1660.2136,535.97739 1652.491,535.97739 C 1644.7628,535.97739 1644.7628,548.0035 1652.491,548.0035"
       id="qa."
       style="opacity:0;fill:#cccccc;fill-opacity:0.5076142;stroke:#000000;stroke-width:0.50000000000000000;stroke-miterlimit:3.97446822999999982;stroke-dasharray:none;stroke-opacity:1" />
  </g>
  <g
     transform="matrix(9.6664741,0,0,8.5400129,-13988.587,-4106.5352)"
     id="ps"
     style="fill:#cccccc;fill-opacity:0.5076142">
    <g
       transform="translate(-29.90172,-45.07447)"
       class="land ps"
       id="ps-"
       style="fill:#cccccc;fill-opacity:0.5076142;stroke:#ffffff;stroke-width:0.50000000000000000;stroke-miterlimit:3.97446822999999982;stroke-dasharray:none;stroke-opacity:1">
      <path
         d="M 1553.758,533.592 C 1554.452,532.907 1555.098,532.154 1555.559,531.288 C 1556.42,531.832 1554.592,534.109 1554.189,534.528 C 1554.018,534.229 1553.874,533.917 1553.758,533.592"
         id="path5472"
         style="fill:#cccccc;fill-opacity:0.5076142" />
      <path
         d="M 1558.658,526.104 C 1559.093,525.315 1559.156,522.847 1560.615,523.128 C 1561.124,523.226 1562.54,524.078 1562.749,524.563 C 1563.375,526.015 1563.198,528.07 1563.119,529.605 C 1563.0635,530.676 1563.1024,531.83254 1562.5373,532.09714 L 1560.4431,533.07772 C 1559.4492,533.54306 1558.4571,533.57606 1558.8831,532.01706 C 1558.9961,531.60406 1560.466,529.43 1560.676,529.501 C 1560.24,529.352 1558.886,529.827 1558.848,529.023 C 1558.807,528.129 1559.09,526.93 1558.658,526.104"
         id="path5474"
         style="fill:#cccccc;fill-opacity:0.5076142" />
    </g>
    <path
       class="circle ps"
       d="M 1533.6216,488.56884 C 1541.3442,488.56884 1541.3442,476.54273 1533.6216,476.54273 C 1525.8934,476.54273 1525.8934,488.56884 1533.6216,488.56884"
       id="ps."
       style="opacity:0;fill:#cccccc;fill-opacity:0.5076142;stroke:#000000;stroke-width:0.50000000000000000;stroke-miterlimit:3.97446822999999982;stroke-dasharray:none;stroke-opacity:1" />
  </g>
  <g
     transform="matrix(9.6664741,0,0,8.5400129,-13988.587,-4106.5352)"
     id="bh"
     style="fill:#cccccc;fill-opacity:0.5076142">
    <path
       class="land coast bh"
       d="M 1646.9073,533.08555 C 1647.1363,533.56455 1647.2333,534.06755 1647.1963,534.59755 C 1647.0623,535.28855 1647.9003,535.78555 1648.0563,536.39755 C 1648.3523,535.63755 1648.3873,531.50555 1646.9073,533.08555"
       id="bh-"
       style="fill:#cccccc;fill-opacity:0.5076142;stroke:#ffffff;stroke-width:0.30000000999999998;stroke-miterlimit:3.97446822999999982;stroke-dasharray:none;stroke-opacity:1" />
    <path
       class="circle bh"
       d="M 1645.5894,537.46726 C 1653.312,537.46726 1653.312,525.44115 1645.5894,525.44115 C 1637.8612,525.44115 1637.8612,537.46726 1645.5894,537.46726"
       id="bh."
       style="opacity:0;fill:#cccccc;fill-opacity:0.5076142;stroke:#000000;stroke-width:0.50000000000000000;stroke-miterlimit:3.97446822999999982;stroke-dasharray:none;stroke-opacity:1" />
  </g>
  <text
     xml:space="preserve"
     style="font-size:72px;font-style:normal;font-weight:normal;fill:#000000;fill-opacity:1;stroke:none;stroke-width:1px;stroke-linecap:butt;stroke-linejoin:miter;stroke-opacity:1;font-family:Bitstream Vera Sans"
     x="298.63174"
     y="475.60236"
     id="text7189"><tspan
       sodipodi:role="line"
       id="tspan7191"
       x="298.63174"
       y="475.60236">Egypt</tspan></text>
  <text
     xml:space="preserve"
     style="font-size:72px;font-style:normal;font-weight:normal;fill:#000000;fill-opacity:1;stroke:none;stroke-width:1px;stroke-linecap:butt;stroke-linejoin:miter;stroke-opacity:1;font-family:Bitstream Vera Sans"
     x="1315.337"
     y="613.45288"
     id="text7193"><tspan
       sodipodi:role="line"
       id="tspan7195"
       x="1315.337"
       y="613.45288">Saudi Arabia</tspan></text>
  <text
     xml:space="preserve"
     style="font-size:72px;font-style:normal;font-weight:normal;fill:#000000;fill-opacity:1;stroke:none;stroke-width:1px;stroke-linecap:butt;stroke-linejoin:miter;stroke-opacity:1;font-family:Bitstream Vera Sans"
     x="1031.6638"
     y="1789.5503"
     id="text7197"
     transform="matrix(0.9285001,-0.3713323,0.3713323,0.9285001,0,0)"><tspan
       sodipodi:role="line"
       id="tspan7199"
       x="1031.6638"
       y="1789.5503">Yemen</tspan></text>
  <text
     xml:space="preserve"
     style="font-size:72px;font-style:normal;font-weight:normal;fill:#000000;fill-opacity:1;stroke:none;stroke-width:1px;stroke-linecap:butt;stroke-linejoin:miter;stroke-opacity:1;font-family:Bitstream Vera Sans"
     x="1424.2474"
     y="1980.2001"
     id="text7201"
     transform="matrix(0.8760992,-0.4821309,0.4821309,0.8760992,0,0)"><tspan
       sodipodi:role="line"
       id="tspan7203"
       x="1424.2474"
       y="1980.2001">Oman</tspan></text>
  <text
     xml:space="preserve"
     style="font-size:72px;font-style:normal;font-weight:normal;fill:#000000;fill-opacity:1;stroke:none;stroke-width:1px;stroke-linecap:butt;stroke-linejoin:miter;stroke-opacity:1;font-family:Bitstream Vera Sans"
     x="2467.3477"
     y="25.780293"
     id="text7205"><tspan
       sodipodi:role="line"
       id="tspan7207"
       x="2467.3477"
       y="25.780293"
       style="text-align:center;text-anchor:middle">United</tspan><tspan
       sodipodi:role="line"
       x="2467.3477"
       y="115.78029"
       id="tspan7237"
       style="text-align:center;text-anchor:middle">Arab</tspan><tspan
       sodipodi:role="line"
       x="2467.3477"
       y="205.78029"
       id="tspan7239"
       style="text-align:center;text-anchor:middle">Emirates</tspan></text>
  <text
     xml:space="preserve"
     style="font-size:72px;font-style:normal;font-weight:normal;fill:#000000;fill-opacity:1;stroke:none;stroke-width:1px;stroke-linecap:butt;stroke-linejoin:miter;stroke-opacity:1;font-family:Bitstream Vera Sans"
     x="2056.519"
     y="305.49701"
     id="text7209"><tspan
       sodipodi:role="line"
       id="tspan7211"
       x="2056.519"
       y="305.49701">Qatar</tspan></text>
  <text
     xml:space="preserve"
     style="font-size:72px;font-style:normal;font-weight:normal;fill:#000000;fill-opacity:1;stroke:none;stroke-width:1px;stroke-linecap:butt;stroke-linejoin:miter;stroke-opacity:1;font-family:Bitstream Vera Sans"
     x="1863.394"
     y="65.395828"
     id="text7213"><tspan
       sodipodi:role="line"
       id="tspan7215"
       x="1863.394"
       y="65.395828">Kuwait</tspan></text>
  <text
     xml:space="preserve"
     style="font-size:72px;font-style:normal;font-weight:normal;fill:#000000;fill-opacity:1;stroke:none;stroke-width:1px;stroke-linecap:butt;stroke-linejoin:miter;stroke-opacity:1;font-family:Bitstream Vera Sans"
     x="1336.2153"
     y="-44.21558"
     id="text7217"><tspan
       sodipodi:role="line"
       id="tspan7219"
       x="1336.2153"
       y="-44.21558">Iraq</tspan></text>
  <text
     xml:space="preserve"
     style="font-size:72px;font-style:normal;font-weight:normal;fill:#000000;fill-opacity:1;stroke:none;stroke-width:1px;stroke-linecap:butt;stroke-linejoin:miter;stroke-opacity:1;font-family:Bitstream Vera Sans"
     x="936.62598"
     y="535.15906"
     id="text7221"><tspan
       sodipodi:role="line"
       id="tspan7223"
       x="936.62598"
       y="535.15906">Jordan</tspan></text>
  <text
     xml:space="preserve"
     style="font-size:72px;font-style:normal;font-weight:normal;fill:#000000;fill-opacity:1;stroke:none;stroke-width:1px;stroke-linecap:butt;stroke-linejoin:miter;stroke-opacity:1;font-family:Bitstream Vera Sans"
     x="913.42847"
     y="-221.68167"
     id="text7225"><tspan
       sodipodi:role="line"
       id="tspan7227"
       x="913.42847"
       y="-221.68167">Syria</tspan></text>
  <text
     xml:space="preserve"
     style="font-size:72px;font-style:normal;font-weight:normal;fill:#000000;fill-opacity:1;stroke:none;stroke-width:1px;stroke-linecap:butt;stroke-linejoin:miter;stroke-opacity:1;font-family:Bitstream Vera Sans"
     x="339.27344"
     y="-179.92496"
     id="text7229"><tspan
       sodipodi:role="line"
       id="tspan7231"
       x="339.27344"
       y="-179.92496">Lebanon</tspan></text>
  <text
     xml:space="preserve"
     style="font-size:72px;font-style:normal;font-weight:normal;fill:#000000;fill-opacity:1;stroke:none;stroke-width:1px;stroke-linecap:butt;stroke-linejoin:miter;stroke-opacity:1;font-family:Bitstream Vera Sans"
     x="339.27341"
     y="-2.4588506"
     id="text7233"><tspan
       sodipodi:role="line"
       id="tspan7235"
       x="339.27341"
       y="-2.4588506">Israel</tspan></text>
  <path
     style="fill:#cccccc;fill-rule:evenodd;stroke:#000000;stroke-width:13.28278828000000011;stroke-linecap:butt;stroke-linejoin:miter;marker-end:url(#Arrow1Mend);stroke-miterlimit:4;stroke-dasharray:none;stroke-opacity:1;fill-opacity:0.5076142"
     d="M 2420.4629,239.0697 L 2266.6667,592.5801"
     id="path8410" />
  <path
     style="fill:#cccccc;fill-rule:evenodd;stroke:#000000;stroke-width:9.94293594000000169;stroke-linecap:butt;stroke-linejoin:miter;marker-end:url(#Arrow1Mend);stroke-miterlimit:4;stroke-dasharray:none;stroke-opacity:1;fill-opacity:0.5076142"
     d="M 2151.7349,326.2063 L 1994.651,520.14605"
     id="path11327" />
  <path
     style="fill:#cccccc;fill-rule:evenodd;stroke:#000000;stroke-width:10.65460968000000008;stroke-linecap:butt;stroke-linejoin:miter;marker-end:url(#Arrow1Mend);stroke-miterlimit:4;stroke-dasharray:none;stroke-opacity:1;fill-opacity:0.5076142"
     d="M 1966.8207,107.146 L 1722.6993,229.19865"
     id="path11329" />
  <path
     style="fill:none;fill-rule:evenodd;stroke:#000000;stroke-width:13.28278828;stroke-linecap:butt;stroke-linejoin:miter;marker-end:url(#Arrow1Mend);stroke-miterlimit:4;stroke-dasharray:none;stroke-opacity:1"
     d="M 1036.3363,468.72247 L 899.68058,108.23934"
     id="path11331"
     inkscape:transform-center-y="-8.0085197"
     inkscape:transform-center-x="-14.51142" />
  <path
     style="fill:#cccccc;fill-rule:evenodd;stroke:#000000;stroke-width:10.10628700000000002;stroke-linecap:butt;stroke-linejoin:miter;marker-end:url(#Arrow1Mend);stroke-miterlimit:4;stroke-dasharray:none;stroke-opacity:1;fill-opacity:0.5076142"
     d="M 549.84413,-2.4182096 L 760.79385,59.976602"
     id="path11333" />
  <path
     style="fill:#cccccc;fill-rule:evenodd;stroke:#000000;stroke-width:10.70955943999999960;stroke-linecap:butt;stroke-linejoin:miter;marker-end:url(#Arrow1Mend);stroke-miterlimit:4;stroke-dasharray:none;stroke-opacity:1;fill-opacity:0.5076142"
     d="M 580.27321,-159.84896 L 818.49131,-116.40353"
     id="path11335" />
</svg>
